<svg width="192" height="30" viewBox="0 0 192 30" fill="none" xmlns="http://www.w3.org/2000/svg">
<rect x="0.3" y="0.3" width="29.4" height="29.4" rx="14.7" fill="#C6FE1E"/>
<rect x="0.3" y="0.3" width="29.4" height="29.4" rx="14.7" stroke="#B3E910" stroke-width="0.6"/>
<mask id="mask0_1720_1740" style="mask-type:luminance" maskUnits="userSpaceOnUse" x="5" y="8" width="20" height="15">
<path d="M24.0038 8H5.99805V23H24.0038V8Z" fill="white"/>
</mask>
<g mask="url(#mask0_1720_1740)">
<path d="M12.9679 11.4606H12.9599C12.4637 11.3182 11.9387 11.603 11.7707 12.0734C11.585 12.579 11.8795 13.1582 12.3997 13.3182C13.6737 13.6798 14.2211 11.8542 12.9679 11.4606Z" fill="#00160D"/>
<path d="M23.8265 14.0425C22.1859 10.4505 16.9523 11.9369 16.4689 10.9961C15.0525 8.77368 12.4084 7.52568 9.54993 8.16888C9.10979 7.99288 7.59411 7.94488 6.6146 8.56088L7.20518 8.82168C7.25 8.84088 7.23719 8.83608 7.30281 8.86008C7.5701 8.96088 7.52368 8.93208 7.33162 9.03768C6.89148 9.29528 6.34251 9.59448 6 10.0441C6.0144 10.0649 6.75384 10.2425 6.75384 10.2425C6.76664 10.2457 6.90429 10.2601 6.87388 10.3209C4.45551 14.1385 8.5336 19.9001 10.5134 23.0009H16.2449C15.3598 21.4169 14.3483 19.2553 14.694 17.7881C14.7564 17.5225 14.8364 17.1849 15.1629 17.1401C15.952 17.0137 17.0083 17.0249 17.7605 16.9401C17.7605 16.9401 17.7643 16.9401 17.7717 16.9401C17.9318 16.9321 21.8498 16.4345 22.7877 18.8761C22.8678 19.1001 23.0518 18.9545 23.1254 18.8073C23.8249 17.4169 24.2762 15.2281 23.8297 14.0441L23.8265 14.0425ZM17.5013 12.8633C17.226 13.3545 17.0387 13.9929 16.9907 14.5497C16.9651 14.9033 17.0019 15.2521 17.0371 15.6057C17.0563 15.8009 17.0579 16.0473 16.9011 16.1753C16.765 16.2905 16.5393 16.3017 16.3121 16.3177C15.1965 16.3129 12.4757 16.3177 11.4273 15.6041L11.4209 15.5993C9.89564 14.6697 9.07938 12.5705 9.98527 10.9401C10.2782 10.3865 10.8175 10.0265 11.4321 9.89048C12.2228 9.70968 13.0935 9.84408 13.7993 10.2137C14.0874 10.3593 14.4315 10.5513 14.694 10.7721C15.2141 11.2265 15.6591 11.6985 16.3409 11.8441C16.6546 11.9337 16.9811 11.9209 17.2948 11.9849C17.8822 12.1257 17.7349 12.4601 17.4997 12.8601L17.5013 12.8633Z" fill="#00160D"/>
</g>
<path d="M37.392 23V7.4H43.296C47.688 7.4 50.952 10.568 50.952 15.176C50.952 19.64 47.904 23 43.632 23H37.392ZM40.056 20.48H43.44C46.176 20.48 48.168 18.272 48.168 15.2C48.168 12.08 46.08 9.848 43.2 9.848H40.056V20.48ZM57.774 23.288C54.246 23.288 51.75 20.672 51.75 17C51.75 13.328 54.246 10.712 57.774 10.712C61.302 10.712 63.822 13.328 63.822 17C63.822 20.672 61.302 23.288 57.774 23.288ZM57.774 20.816C59.766 20.816 61.206 19.232 61.206 17C61.206 14.72 59.766 13.112 57.774 13.112C55.782 13.112 54.366 14.72 54.366 17C54.366 19.232 55.782 20.816 57.774 20.816ZM69.9786 23.288C66.7866 23.288 64.5066 20.672 64.5066 17C64.5066 13.304 66.7626 10.712 69.9546 10.712C71.5866 10.712 73.0026 11.432 73.9626 12.656V6.68H76.4826V20.6L76.5306 23H74.4666L74.0826 21.2C73.1226 22.496 71.6826 23.288 69.9786 23.288ZM70.5546 20.816C72.5466 20.816 73.9866 19.208 73.9866 17C73.9866 14.744 72.5466 13.136 70.5546 13.136C68.5626 13.136 67.1226 14.744 67.1226 17C67.1226 19.208 68.5626 20.816 70.5546 20.816ZM83.8965 23.288C80.3685 23.288 77.8725 20.672 77.8725 17C77.8725 13.328 80.3685 10.712 83.8965 10.712C87.4245 10.712 89.9445 13.328 89.9445 17C89.9445 20.672 87.4245 23.288 83.8965 23.288ZM83.8965 20.816C85.8885 20.816 87.3285 19.232 87.3285 17C87.3285 14.72 85.8885 13.112 83.8965 13.112C81.9045 13.112 80.4885 14.72 80.4885 17C80.4885 19.232 81.9045 20.816 83.8965 20.816ZM95.667 23V7.4H102.603C105.507 7.4 107.571 9.488 107.571 12.416C107.571 15.368 105.435 17.48 102.483 17.48H98.331V23H95.667ZM98.331 15.2H102.315C103.755 15.2 104.787 14.096 104.787 12.536C104.787 10.976 103.755 9.848 102.315 9.848H98.331V15.2ZM111.711 23.288C109.359 23.288 107.775 21.872 107.775 19.784C107.775 18.176 109.023 16.832 110.919 16.472L114.711 15.728C115.071 15.68 115.311 15.416 115.311 15.104C115.311 13.88 114.423 12.992 113.175 12.992C111.879 12.992 110.871 13.904 110.775 15.272L108.183 14.648C108.567 12.344 110.583 10.712 113.055 10.712C115.839 10.712 117.831 12.584 117.831 15.176V20.6L117.879 23H115.887L115.455 21.368C114.711 22.544 113.343 23.288 111.711 23.288ZM110.487 19.448C110.487 20.312 111.183 20.888 112.335 20.888C114.015 20.888 115.311 19.664 115.311 17.864V17.312C115.071 17.36 114.807 17.432 114.543 17.48L111.927 17.96C111.039 18.128 110.487 18.704 110.487 19.448ZM119.784 25.64C120.84 25.568 121.728 24.992 122.16 23.984L122.712 22.616L117.984 11H120.864L123.96 19.688L126.792 11H129.624L124.44 24.728C123.696 26.696 122.376 27.944 120.744 28.088L119.784 25.64ZM130.303 23V11H132.295L132.727 12.944C133.279 11.624 134.647 10.712 136.255 10.712C137.887 10.712 139.327 11.648 139.951 13.016C140.551 11.648 142.015 10.712 143.695 10.712C146.167 10.712 147.943 12.728 147.943 15.536V23H145.423V15.872C145.423 14.336 144.439 13.208 143.071 13.208C141.535 13.208 140.431 14.504 140.431 16.28V23H137.959V15.92C137.959 14.336 136.951 13.208 135.559 13.208C133.975 13.208 132.823 14.528 132.823 16.376V23H130.303ZM155.115 23.288C151.587 23.288 149.115 20.672 149.115 17C149.115 13.328 151.539 10.712 154.947 10.712C158.763 10.712 160.971 13.976 160.635 17.792H151.803C152.115 19.616 153.411 20.84 155.139 20.84C156.507 20.84 157.611 20.072 157.899 18.944L160.467 19.856C159.843 21.896 157.707 23.288 155.115 23.288ZM151.827 15.92H157.995C157.755 14.24 156.507 13.112 154.947 13.112C153.363 13.112 152.163 14.24 151.827 15.92ZM162.027 23V11H164.043L164.427 12.968C165.075 11.624 166.587 10.712 168.315 10.712C170.955 10.712 172.827 12.8 172.827 15.656V23H170.307V16.064C170.307 14.384 169.203 13.184 167.595 13.184C165.843 13.184 164.547 14.552 164.547 16.472V23H162.027ZM180.599 23.024C178.103 23.792 175.175 23.024 175.175 19.976V13.328H173.375V11H174.071C174.815 11 175.295 10.448 175.295 9.608V7.808H177.695V11H180.455V13.328H177.695V19.4C177.695 20.792 179.015 21.176 180.311 20.696L180.599 23.024ZM186.24 23.288C183.288 23.288 181.08 21.68 180.888 19.448L183.768 18.776C183.84 20.072 184.944 21.032 186.408 21.032C187.536 21.032 188.376 20.432 188.376 19.568C188.376 17.096 181.464 18.032 181.464 14.072C181.464 12.08 183.312 10.712 185.928 10.712C188.616 10.712 190.56 12.104 190.752 14.048L188.016 14.672C187.992 13.616 187.104 12.896 185.856 12.896C184.8 12.896 184.08 13.424 184.08 14.192C184.08 16.592 191.088 15.608 191.088 19.664C191.088 21.776 189.072 23.288 186.24 23.288Z" fill="#00160D"/>
</svg>
